<?xml version="1.0" encoding="utf-8"?><svg version="1.1" id="Layer_1" xmlns="http://www.w3.org/2000/svg" xmlns:xlink="http://www.w3.org/1999/xlink" x="0px" y="0px"
	 viewBox="0 0 123.1 78.6" style="enable-background:new 0 0 123.1 78.6;" xml:space="preserve"><style type="text/css">
	.st0{fill:#323031;}
</style><g><path class="st0" d="M29.3,52.8c-0.4-0.1-1.3,0-1.7,0.3c-3.1,1.6-9.9,9.9-5.9,19.2c0,0,3.2,8.7,16.4,5.6
		c12.9-3.2,16.7-21.5,15.4-29.2c0,0-0.6-10.7-18.4-6.8c-3.4,0.7-6.7,1.1-9.6,1.1c-4.8,0-9.4,0.5-9.9-4c-0.3-4.3,5.6-11.1,7-12.9
		c3.4-4.2,14.9-13.8,19.7-10.9c5.1,3.4-0.7,9.2-2.3,10.4c0,0-6.6,5.2-2.7,9.6c0,0,5.8,7.7,16.5-8.8S55.3-8,36,3.8
		s-46.6,37-31.7,44.9c0,0,9.1,5.7,21.1,2.5c0,0,8.3-2.9,13.6-1.6c3.8,0.7,5.9,4.9,4.4,8.5c-2.9,6.9-8.8,10.3-11.5,7.5
		c0,0-3.9-3.4-0.5-7.7C32,57.3,33.7,53.5,29.3,52.8z"/><path class="st0" d="M56.2,41c0-0.7,0.5-2.6,2.6-3.2c2.2-0.6,3.8,0.4,4.3,2.3C64.4,45.2,56.1,46.1,56.2,41z M74.9,57.8
		c-1.4,3.5-7.2,8.7-8.5,9.4c-1.2,0.7-2.5,1.5-4.4,1.5c-5.1-0.1-5.5-7.6-4.9-13.4c0-0.1,0.1-0.1,0.1-0.2c2.4-1.2,6-2.1,6.8,0.1
		c0.9,2.1-0.5,8.6,1.1,10c0.1,0,0.1,0.1,0.2,0c2.8-0.6,4.6-2.1,6.2-4C72.4,60.2,73,57.9,74.9,57.8z"/><path class="st0" d="M102.3,66.4c-4.8,0.5-6.7-1.4-8.4-4.3c-0.2-0.3-0.1-0.6,0.1-0.9c5.6-5.3,11.6-16,12.6-27.9
		c0.7-9.2-1.4-19.7-6.7-23.5c-3.2-2.3-8.4-2.3-11.1,0c-2.5,2.2-3.9,9.2-4.3,15.4c-0.7,11.5,0.2,24,2.7,30.8c0.1,0.3,0,0.5-0.1,0.7
		c-1.9,2-4.9,5.4-8.4,4.9c-4.9-0.6-4.3-6.5-1.4-9.1c1.7-1.4,4-1,4.9-2.3c0.2-0.2,0.2-0.8,0-1.1c-4.9-4.9-12.5,3-12,9.7
		c0.7,9.7,13.5,10.2,20,5.7c0.4-0.2,0.8-0.1,1,0.2c9.1,15.2,28.3-4.5,32-14.1C123.5,46.3,111.6,65.5,102.3,66.4z M90.4,45
		c-0.1,0.4-0.1,0.8-0.2,1.3c-0.1,0.4-0.1,0.9-0.2,1.3c0,0,0,0,0,0c-0.1,1-0.2,1.9-0.3,2.8c-0.4-0.7-1.1-2.6-1.1-2.7
		c-1.2-3.7-2-8.8-2.3-13.5C85.9,27,86.6,19,89.1,14l0,0c0,0,2-4.1,2.6-1.9C94.7,22.1,91.8,34.3,90.4,45z"/></g></svg>