<?xml version="1.0" encoding="utf-8"?>
<!-- Generator: Adobe Illustrator 19.0.0, SVG Export Plug-In . SVG Version: 6.00 Build 0)  -->
<svg version="1.1" id="Layer_1" xmlns="http://www.w3.org/2000/svg" xmlns:xlink="http://www.w3.org/1999/xlink" x="0px" y="0px"
	 viewBox="0 0 50 50" style="enable-background:new 0 0 50 50;" xml:space="preserve">
<style type="text/css">
	.st0{fill:#333333;}
	.st1{fill:#FFC825;}
</style>
<rect id="XMLID_9_" x="0" y="0" class="st0" width="50" height="50"/>
<polygon id="XMLID_48_" class="st1" points="17.5,32.7 17.5,32.7 17.5,32.8 "/>
<g id="XMLID_3_">
	<path id="XMLID_1_" class="st1" d="M34.3,13.1L34.3,13.1c-0.3,0.6-0.9,0.7-1.4,0.5l0,0c-0.5-0.3-0.7-0.9-0.4-1.4l0-0.1
		c0.3-0.5,0.9-0.7,1.4-0.4v0C34.4,12,34.6,12.6,34.3,13.1z"/>
	<path id="XMLID_56_" class="st1" d="M45.9,20.7c-0.7-1.6-1.5-2.8-1.8-3.3c0,0-0.1-0.2-0.1-0.2c-0.3-0.4-0.7-0.1-0.7-0.1
		s-0.1,0.1-0.2,0.1c-0.8,0.4-1.9,1.2-3.1,2.9c-0.7,1-1.7,1.7-2.9,1.9c-0.4,0.1-0.8,0.1-1.2,0.1l0,0l-0.1-3.2c0,0,0-3.9-2.9-3.4
		c0,0-2.5,0.2-2.1,4c0.1,1,0.7,1.8,1.6,2.2c0.6,0.2,1.4,0.3,2.5,0.1c0,0,0.1,0.3-0.5,0.3L29,22.2l0-0.5c-0.1-2.9-1.7-4.6-2.9-5.4
		c-0.6-0.4-1.4-0.2-1.8,0.4l-0.6,1.1c2.3,0.5,3.3,2.8,3.7,4.5l-4.1,0.1c0,0-0.9,0.1-1.4-0.8c0,0,0,1.1,0.1,1.7
		c0.1,1.3,0.1,1.2,1.7,1.2l14.7-0.6c0,0,1.4-0.2,2.4-1.6c0,0,1,1.3,3.1,1.4c0.1,0,1.6,0.1,2-0.4c0,0,0,0,0,0
		c0.3-0.3,0.4-0.7,0.4-1.1C46.3,21.7,46.1,21.2,45.9,20.7z M34.5,20.4c-2.3-0.5-2.5-1.5-2.5-1.5l0,0c0-0.1-0.1-0.3-0.1-0.4
		c0-0.6,0.5-1,1.1-0.9c0.2,0,0.4,0.1,0.5,0.2c0,0,0,0,0,0c0.8,0.5,1.2,2.4,1.2,2.4L34.5,20.4z M44.5,22.3c0,0-3-0.7-2.6-1.4
		c0,0,0.7-1.1,1.3-1.4c0.1,0,0.2,0,0.3,0c0.2,0.1,0.8,0.5,1.2,1.9c0,0,0,0.1,0,0.1C44.7,21.7,44.9,22.3,44.5,22.3z"/>
	<path id="XMLID_55_" class="st1" d="M32.3,14L32.3,14c-0.3,0.6-0.9,0.7-1.4,0.5l0,0c-0.5-0.3-0.7-0.9-0.4-1.4l0-0.1
		c0.3-0.5,0.9-0.7,1.4-0.4l0,0C32.4,12.9,32.6,13.5,32.3,14z"/>
	<path id="XMLID_53_" class="st1" d="M20.6,29.2c-0.1-0.1-0.3-0.1-0.5-0.1c-0.2,0-0.3,0-0.5,0.1c-0.1,0.1-0.3,0.1-0.4,0.2
		c-0.1,0.1-0.2,0.2-0.3,0.3c-0.1,0.1-0.1,0.2-0.1,0.3c0,0.1,0.1,0.2,0.2,0.3c0.1,0.1,0.3,0.1,0.5,0.1c0.1,0,0.3,0,0.4-0.1
		c0.1,0,0.3-0.1,0.4-0.2c0.1-0.1,0.2-0.2,0.3-0.3c0.1-0.1,0.1-0.2,0.1-0.4C20.8,29.4,20.7,29.3,20.6,29.2z"/>
	<path id="XMLID_51_" class="st1" d="M33.5,28.7c-0.1-0.1-0.3-0.1-0.5-0.1c-0.2,0-0.3,0-0.5,0.1c-0.1,0.1-0.3,0.1-0.4,0.2
		c-0.1,0.1-0.2,0.2-0.3,0.3c-0.1,0.1-0.1,0.2-0.1,0.3c0,0.1,0.1,0.2,0.2,0.3c0.1,0.1,0.3,0.1,0.5,0.1c0.1,0,0.3,0,0.4-0.1
		c0.1,0,0.3-0.1,0.4-0.2c0.1-0.1,0.2-0.2,0.3-0.3c0.1-0.1,0.1-0.2,0.1-0.4C33.7,28.9,33.6,28.8,33.5,28.7z"/>
	<path id="XMLID_49_" class="st1" d="M46.4,28.2c-0.1-0.1-0.3-0.1-0.5-0.1c-0.2,0-0.3,0-0.5,0.1c-0.1,0.1-0.3,0.1-0.4,0.2
		c-0.1,0.1-0.2,0.2-0.3,0.3c-0.1,0.1-0.1,0.2-0.1,0.3c0,0.1,0.1,0.2,0.2,0.3c0.1,0.1,0.3,0.1,0.5,0.1c0.1,0,0.3,0,0.4-0.1
		c0.1,0,0.3-0.1,0.4-0.2c0.1-0.1,0.2-0.2,0.3-0.3c0.1-0.1,0.1-0.2,0.1-0.4C46.6,28.4,46.5,28.3,46.4,28.2z"/>
	<path id="XMLID_6_" class="st1" d="M46.3,32.4c0,0.1-0.1,0.2-0.2,0.4c-0.1,0.1-0.3,0.3-0.4,0.4c-0.1,0.1-0.3,0.2-0.5,0.3
		c-0.2,0.1-0.3,0.1-0.4,0.1c-0.1,0-0.2,0-0.2-0.1c0,0,0-0.1,0-0.2l1-2.5l-1.3-0.7l-1,2.5l0,0c-0.1,0.1-0.1,0.2-0.3,0.4
		c-0.1,0.1-0.3,0.3-0.4,0.4c-0.1,0.1-0.3,0.2-0.4,0.3c-0.2,0.1-0.3,0.1-0.4,0.1c-0.1,0-0.2,0-0.2-0.1c0-0.1,0-0.1,0-0.2l1-2.5
		l-1.3-0.7L40,33.7c-0.1,0.3-0.3,0.5-0.4,0.5c-0.1,0-0.1,0-0.2-0.2c0-0.1,0-0.2,0.1-0.4l1.2-3l-1.5,0.1l-0.9,2.2l0,0
		c0,0.1-0.1,0.2-0.2,0.2c-0.1,0.1-0.3,0.3-0.4,0.4c-0.1,0.1-0.3,0.2-0.4,0.3c-0.2,0.1-0.3,0.1-0.4,0.1c-0.1,0-0.2,0-0.2-0.1
		c0-0.1,0-0.1,0-0.2l1.1-2.8l-1.3,0.1L36.5,31c-0.1-0.1-0.2-0.2-0.3-0.3c-0.1-0.1-0.3-0.1-0.6-0.1c-0.2,0-0.4,0-0.6,0.1
		c-0.2,0.1-0.4,0.2-0.5,0.4c-0.2,0.2-0.4,0.4-0.5,0.6c-0.2,0.3-0.3,0.6-0.5,1c0,0.1-0.1,0.2-0.1,0.3c0,0,0,0,0,0
		c0,0.1-0.1,0.2-0.2,0.3c-0.1,0.1-0.3,0.3-0.4,0.4c-0.1,0.1-0.3,0.2-0.5,0.3c-0.2,0.1-0.3,0.1-0.4,0.1c-0.1,0-0.2,0-0.2-0.1
		c0,0,0-0.1,0-0.2l1-2.5l-1.3-0.7l-1,2.5l0,0c-0.1,0.1-0.2,0.3-0.3,0.4c-0.1,0.1-0.3,0.3-0.4,0.4c-0.1,0.1-0.3,0.2-0.4,0.3
		c-0.1,0.1-0.3,0.1-0.4,0.1c-0.1,0-0.2,0-0.2-0.1c0-0.1,0-0.1,0-0.2l2.6-6.3l-1.7,0.1L28.3,31C28.2,31,28.1,31,28,31
		c-0.1,0-0.2,0-0.4,0c-0.4,0-0.8,0.2-1.2,0.5c-0.4,0.3-0.7,0.9-1,1.6l-0.1,0.3l0,0c-0.1,0.1-0.2,0.2-0.3,0.3
		c-0.1,0.1-0.3,0.3-0.4,0.4c-0.1,0.1-0.3,0.2-0.4,0.3c-0.1,0.1-0.3,0.1-0.4,0.1c-0.1,0-0.2,0-0.2-0.1c0-0.1,0-0.1,0-0.2l2.6-6.3
		l-1.7,0.1l-1.4,3.4c-0.1,0-0.1-0.1-0.2-0.1c-0.1,0-0.2,0-0.4,0c-0.4,0-0.8,0.2-1.2,0.5c-0.4,0.3-0.7,0.9-1,1.6l-0.1,0.3v0
		c0,0.1-0.1,0.2-0.2,0.2c-0.1,0.1-0.3,0.3-0.4,0.4c-0.1,0.1-0.3,0.2-0.5,0.3c-0.2,0.1-0.3,0.1-0.4,0.1s-0.2,0-0.2-0.1
		c0,0,0-0.1,0-0.2l1-2.5l-1.3-0.7l-1,2.5c0,0,0,0,0,0c0,0,0,0,0,0c0,0,0,0,0,0c0,0,0,0,0,0c0,0.1-0.2,0.3-0.5,0.6l0,0
		c-0.3,0.3-0.6,0.6-1,0.7l0,0c0,0,0,0,0,0c-0.3,0.1-0.6,0-0.8-0.2c0,0-0.1-0.1-0.1-0.1c2.6-3.9,1.7-7.4,0.4-9.8c0.2,0,0.3,0,0.4,0
		c1.5,0,1.7-1.4,1.7-1.4c0,0,0,0,0,0c0,0,0,0,0,0s0,1.3,2,1.3c0.7,0,1.3-0.1,1.3-0.1l-0.2-3.8c0,0,0-1.5-0.6-2.1l-1.2,0.9
		c0,0,1,0.9,1.2,2.2c0,0,0.2,0.8-1.2,0.8c0,0-1.5,0.2-1.8-3.4L16,19.8c0,0,0,0,0,0c0,0,0,0,0,0c0.7,0.5,1,2,0.5,2.5
		c-0.3,0.2-0.6,0.4-1,0.4c-0.5,0.1-1.3-0.2-1.9-0.5c0,0,0,0,0,0c-0.3-0.1-0.5-0.3-0.6-0.4c0,0,0,0,0,0c0,0,0,0,0,0c0,0,0,0,0,0
		c0,0,0,0,0,0c0,0,0,0,0,0l-0.2,0.4l-0.7,1.3c1.5,1.4,2.1,3.6,2.4,5.1c0.3,1.6,0,3.2-0.8,4.5c-0.1,0.2-0.2,0.3-0.3,0.5
		c-2.7-1.5-7.1-3.6-9-1.8c-0.2,0.2-0.4,0.5-0.5,0.8c0,0-0.5,1.2-0.4,2.4l0,0c0,0.1,0,0.1,0,0.2c0.5,2.3,1.7,3,3.2,3.2
		c1.8,0.3,3.6-0.2,4.9-0.7c1.1-0.4,2.1-1.1,2.8-2c0,0,0,0,0.1-0.1c0.2,0.1,0.4,0.2,0.7,0.3c0,0,0.9,0.4,2-0.9l0,0l0,0l0,0
		c0,0,0,0,0,0c0,0.1,0,0.1,0,0.2c0,0.2,0.1,0.4,0.2,0.5c0.1,0.1,0.3,0.2,0.5,0.2c0.3,0,0.6-0.1,0.9-0.2c0.3-0.1,0.6-0.3,0.9-0.5
		c0.2-0.1,0.4-0.2,0.5-0.4c0,0,0,0.1,0,0.1c0,0.3,0.1,0.5,0.3,0.6c0.2,0.1,0.4,0.2,0.6,0.2c0.2,0,0.3,0,0.4,0c0.1,0,0.2,0,0.3-0.1
		c0.1,0,0.2-0.1,0.3-0.1c0.1,0,0.2-0.1,0.2-0.2c0.1,0.1,0.1,0.2,0.2,0.2s0.2,0.1,0.4,0.1c0.3,0,0.6-0.1,0.9-0.2
		c0.3-0.1,0.6-0.3,0.9-0.5c0.2-0.1,0.4-0.2,0.5-0.4c0,0.1,0,0.1,0,0.1c0,0.3,0.1,0.5,0.3,0.6c0.2,0.1,0.4,0.2,0.6,0.2
		c0.2,0,0.3,0,0.4,0c0.1,0,0.2,0,0.3-0.1c0.1,0,0.2-0.1,0.3-0.1c0.1,0,0.2-0.1,0.2-0.2c0.1,0.1,0.1,0.2,0.2,0.2s0.2,0.1,0.4,0.1
		c0.3,0,0.6-0.1,0.9-0.2c0.3-0.1,0.6-0.3,0.9-0.5c0.1-0.1,0.2-0.2,0.4-0.3c0,0.1,0,0.1,0,0.2c0,0.2,0.1,0.4,0.2,0.5
		c0.1,0.1,0.3,0.2,0.5,0.2c0.3,0,0.6-0.1,0.9-0.2c0.3-0.1,0.6-0.3,0.9-0.5c0.2-0.1,0.4-0.2,0.5-0.4c0,0,0,0.1,0,0.1
		c0,0.3,0.1,0.5,0.3,0.6c0.2,0.1,0.4,0.2,0.8,0.2c0.1,0,0.3,0,0.3,0c0.1,0,0.1,0,0.1,0l-0.7,1.9l1.6-0.1l0.9-2.2
		c0.1,0.1,0.2,0.1,0.3,0.1c0.2,0,0.3-0.1,0.6-0.2c0.2-0.1,0.4-0.2,0.6-0.4c0.1,0,0.1-0.1,0.2-0.1c0,0.1,0,0.1,0,0.2
		c0,0.2,0.1,0.4,0.2,0.6c0.2,0.1,0.4,0.2,0.7,0.2c0.3,0,0.6-0.1,0.8-0.2c0.2-0.1,0.4-0.2,0.5-0.3c0,0.1,0.1,0.2,0.2,0.3
		c0.1,0.1,0.3,0.1,0.5,0.1c0.2,0,0.5-0.1,0.8-0.2c0.3-0.1,0.6-0.3,0.8-0.5c0.1-0.1,0.2-0.2,0.3-0.2c0,0.1,0,0.1,0,0.2
		c0,0.2,0.1,0.4,0.2,0.5c0.1,0.1,0.3,0.2,0.5,0.2c0.3,0,0.6-0.1,0.9-0.2c0.3-0.1,0.6-0.3,0.9-0.5c0.3-0.2,0.5-0.4,0.8-0.6
		c0.2-0.2,0.4-0.4,0.5-0.6L46.3,32.4z M8.4,36.6c-2.6,0.7-3.4-0.9-3.7-1.9c-0.1-0.5,0.1-1,0.5-1.3c0.3-0.2,0.6-0.3,1-0.3
		c0,0,1.7-0.5,6.1,1.5C10.6,36.2,8.4,36.6,8.4,36.6z M22,34.6c-0.1,0.2-0.2,0.3-0.4,0.3c-0.1,0-0.1,0-0.1-0.1c0-0.1,0-0.1,0.1-0.3
		l0.9-2.3c0-0.1,0.1-0.2,0.2-0.3c0.1,0,0.1-0.1,0.2-0.1c0.1,0,0.1,0,0.2,0.1L22,34.6z M26.9,34.4c-0.1,0.2-0.2,0.3-0.4,0.3
		c-0.1,0-0.1,0-0.1-0.1c0-0.1,0-0.1,0.1-0.3l0.9-2.3c0-0.1,0.1-0.2,0.2-0.3c0.1,0,0.1-0.1,0.2-0.1c0.1,0,0.1,0,0.2,0.1L26.9,34.4z
		 M35.9,31.7L35,33.9c-0.1,0.3-0.3,0.5-0.4,0.5c-0.1,0-0.2,0-0.2-0.2c0,0,0-0.1,0-0.1c0-0.1,0-0.1,0.1-0.2l0.9-2.3
		c0.1-0.1,0.2-0.2,0.3-0.2c0.1,0,0.1,0,0.1,0c0,0,0,0.1,0.1,0.1C35.9,31.6,35.9,31.6,35.9,31.7z"/>
</g>
</svg>
